<?xml version="1.0" encoding="UTF-8"?>
<svg width="132px" height="36px" viewBox="0 0 132 36" version="1.1" xmlns="http://www.w3.org/2000/svg" xmlns:xlink="http://www.w3.org/1999/xlink">
    <!-- Generator: Sketch 49.3 (51167) - http://www.bohemiancoding.com/sketch -->
    <title>Logo-white-svg1</title>
    <desc>Created with Sketch.</desc>
    <defs></defs>
    <g id="Page-1" stroke="none" stroke-width="1" fill="none" fill-rule="evenodd">
        <g id="home-outlyer-v1" transform="translate(-113.000000, -4380.000000)">
            <g id="Logo-white-svg1" transform="translate(113.000000, 4380.000000)">
                <path d="M37.2050781,29 C32.9863281,29 31,26.662801 31,22.8626227 L31,9 L36.0449218,9 L36.0449218,20.8465656 C36.0449218,23.55843 37.4335937,24.4504906 39.5781249,24.4504906 C41.5292969,24.4504906 43.0761719,23.3621767 43.9550781,22.220339 L43.9550781,9 L49,9 L49,28.5182872 L43.9550781,28.5182872 L43.9550781,26.0561998 C42.6542968,27.5548617 40.3515625,29 37.2050781,29 Z" id="Shape_1_" fill="#4A4A4A" fill-rule="nonzero"></path>
                <path d="M56.2144809,23.5435595 L56.2144809,13.0886821 L53,13.0886821 L53,8.47462059 L56.2144809,8.47462059 L56.2144809,3 L61.364754,3 L61.364754,8.47462059 L65.3073771,8.47462059 L65.3073771,13.0886821 L61.364754,13.0886821 L61.364754,22.1153976 C61.364754,23.3604619 62.0040983,24.3125698 63.1407104,24.3125698 C63.9043716,24.3125698 64.6325136,24.0196135 64.9166667,23.7266572 L66,27.7181866 C65.2363388,28.4322676 63.8688524,28.9998704 61.7377049,28.9998704 C58.1325137,29.0181802 56.2144809,27.0956545 56.2144809,23.5435595 Z" id="Shape_2_" fill="#4A4A4A" fill-rule="nonzero"></path>
                <polygon id="Shape_3_" fill="#4A4A4A" fill-rule="nonzero" points="68 2 73 2 73 28 68 28"></polygon>
                <path d="M80.4191919,31.6723017 C81.7449495,31.6723017 82.6111111,31.3342003 83.1060606,30.336801 L83.8308081,28.7646294 L76,10 L81.4444445,10 L86.4823233,22.8647594 L91.5202021,10 L97,10 L87.9318182,31.5201561 C86.4999999,35.0026008 83.9368686,35.9323797 80.6136363,36 C80.0126262,36 78.7398989,35.8816645 78.0858586,35.7295188 L78.8459596,31.3680104 C79.270202,31.5539662 79.9419192,31.6723017 80.4191919,31.6723017 Z" id="Shape_4_" fill="#4A4A4A" fill-rule="nonzero"></path>
                <path d="M106.662174,9 C112.227314,9 116,13.2645779 116,19.4960836 L116,20.5926893 L102.138365,20.5926893 C102.445642,22.9947781 104.340521,25.0139252 107.498652,25.0139252 C109.239892,25.0139252 111.28841,24.3002611 112.483378,23.1166231 L114.651393,26.3542211 C112.756515,28.129678 109.871519,29 106.969452,29 C101.284816,29 97,25.1009573 97,18.9738903 C97,13.4560488 100.977538,9 106.662174,9 Z M102.070081,17.1984334 L111.254268,17.1984334 C111.134771,15.3881636 109.90566,12.9860749 106.662174,12.9860749 C103.606469,12.9860749 102.292004,15.3011314 102.070081,17.1984334 Z" id="Shape_5_" fill="#4A4A4A" fill-rule="nonzero"></path>
                <path d="M120,9.44682752 L125.423622,9.44682752 L125.423622,12.1277927 C126.87874,10.3762288 129.429921,9 132,9 L132,14.0223414 C131.622047,13.9329759 131.092913,13.8972296 130.507086,13.8972296 C128.711811,13.8972296 126.311811,14.8266309 125.423622,16.077748 L125.423622,29 L120,29 L120,9.44682752 Z" id="Shape_6_" fill="#4A4A4A" fill-rule="nonzero"></path>
                <g id="Group">
                    <ellipse id="Oval" cx="13.9397918" cy="15.4619444" rx="8.49428526" ry="8.81971262"></ellipse>
                    <g>
                        <ellipse id="Oval" cx="23.3680959" cy="4.00729681" rx="3.84181367" ry="3.98899865"></ellipse>
                        <ellipse id="Oval" cx="13.9397918" cy="15.4619444" rx="8.49428526" ry="8.81971262"></ellipse>
                        <path d="M25.8881848,7.83161203 C25.1656418,8.34396048 24.3021149,8.63673103 23.3680959,8.63673103 C20.9008761,8.63673103 18.9094773,6.56903906 18.9094773,4.00729681 C18.9094773,3.29366861 19.0680843,2.61663673 19.3324294,2.01279749 C17.6758674,1.29916928 15.8606987,0.896609789 13.9574148,0.896609789 C6.25616446,0.914907948 0,7.41075437 0,15.425348 C0,23.4399417 6.25616446,29.9357881 13.9750378,29.9357881 C21.6939111,29.9357881 27.9500756,23.4399417 27.9500756,15.425348 C27.9676986,12.6440279 27.2099097,10.0456893 25.8881848,7.83161203 Z M13.9397918,24.2816569 C9.2520742,24.2816569 5.44550653,20.3292546 5.44550653,15.4619444 C5.44550653,10.594634 9.2520742,6.6422317 13.9397918,6.6422317 C18.6275094,6.6422317 22.4340771,10.594634 22.4340771,15.4619444 C22.4340771,20.3292546 18.6275094,24.2816569 13.9397918,24.2816569 Z" id="Shape" fill="#4A4A4A" fill-rule="nonzero"></path>
                    </g>
                    <ellipse id="Oval" fill="#56CAB2" fill-rule="nonzero" cx="23.3680959" cy="4.00729681" rx="3.84181367" ry="3.98899865"></ellipse>
                </g>
            </g>
        </g>
    </g>
</svg>